TITLE ""
FILE "P1Q_t_0520-0528.mp3" MP3
  TRACK 01 AUDIO
    TITLE "P1Q_t_0520-0528_01"
    INDEX 01 00:00:00
  TRACK 02 AUDIO
    TITLE "P1Q_t_0520-0528_02"
    INDEX 01 00:01:22
  TRACK 03 AUDIO
    TITLE "P1Q_t_0520-0528_03"
    INDEX 01 00:01:41
  TRACK 04 AUDIO
    TITLE "P1Q_t_0520-0528_04"
    INDEX 01 00:04:65
  TRACK 05 AUDIO
    TITLE "P1Q_t_0520-0528_05"
    INDEX 01 00:05:10
  TRACK 06 AUDIO
    TITLE "P1Q_t_0520-0528_06"
    INDEX 01 00:09:74
  TRACK 07 AUDIO
    TITLE "P1Q_t_0520-0528_07"
    INDEX 01 00:10:46
  TRACK 08 AUDIO
    TITLE "P1Q_t_0520-0528_08"
    INDEX 01 00:11:57
  TRACK 09 AUDIO
    TITLE "P1Q_t_0520-0528_09"
    INDEX 01 00:12:06
  TRACK 10 AUDIO
    TITLE "P1Q_t_0520-0528_10"
    INDEX 01 00:15:22
  TRACK 11 AUDIO
    TITLE "P1Q_t_0520-0528_11"
    INDEX 01 00:15:41
  TRACK 12 AUDIO
    TITLE "P1Q_t_0520-0528_12"
    INDEX 01 00:20:56
  TRACK 13 AUDIO
    TITLE "P1Q_t_0520-0528_13"
    INDEX 01 00:21:32
  TRACK 14 AUDIO
    TITLE "P1Q_t_0520-0528_14"
    INDEX 01 00:22:49
  TRACK 15 AUDIO
    TITLE "P1Q_t_0520-0528_15"
    INDEX 01 00:22:69
  TRACK 16 AUDIO
    TITLE "P1Q_t_0520-0528_16"
    INDEX 01 00:27:33
  TRACK 17 AUDIO
    TITLE "P1Q_t_0520-0528_17"
    INDEX 01 00:27:52
  TRACK 18 AUDIO
    TITLE "P1Q_t_0520-0528_18"
    INDEX 01 00:33:51
  TRACK 19 AUDIO
    TITLE "P1Q_t_0520-0528_19"
    INDEX 01 00:34:21
  TRACK 20 AUDIO
    TITLE "P1Q_t_0520-0528_20"
    INDEX 01 00:35:42
  TRACK 21 AUDIO
    TITLE "P1Q_t_0520-0528_21"
    INDEX 01 00:35:64
  TRACK 22 AUDIO
    TITLE "P1Q_t_0520-0528_22"
    INDEX 01 00:39:46
  TRACK 23 AUDIO
    TITLE "P1Q_t_0520-0528_23"
    INDEX 01 00:39:65
  TRACK 24 AUDIO
    TITLE "P1Q_t_0520-0528_24"
    INDEX 01 00:44:49
  TRACK 25 AUDIO
    TITLE "P1Q_t_0520-0528_25"
    INDEX 01 00:45:21
  TRACK 26 AUDIO
    TITLE "P1Q_t_0520-0528_26"
    INDEX 01 00:46:32
  TRACK 27 AUDIO
    TITLE "P1Q_t_0520-0528_27"
    INDEX 01 00:46:54
  TRACK 28 AUDIO
    TITLE "P1Q_t_0520-0528_28"
    INDEX 01 00:51:39
  TRACK 29 AUDIO
    TITLE "P1Q_t_0520-0528_29"
    INDEX 01 00:51:59
  TRACK 30 AUDIO
    TITLE "P1Q_t_0520-0528_30"
    INDEX 01 00:55:03
  TRACK 31 AUDIO
    TITLE "P1Q_t_0520-0528_31"
    INDEX 01 00:55:51
  TRACK 32 AUDIO
    TITLE "P1Q_t_0520-0528_32"
    INDEX 01 00:56:72
  TRACK 33 AUDIO
    TITLE "P1Q_t_0520-0528_33"
    INDEX 01 00:57:20
  TRACK 34 AUDIO
    TITLE "P1Q_t_0520-0528_34"
    INDEX 01 00:59:40
  TRACK 35 AUDIO
    TITLE "P1Q_t_0520-0528_35"
    INDEX 01 00:59:62
  TRACK 36 AUDIO
    TITLE "P1Q_t_0520-0528_36"
    INDEX 01 01:03:32
  TRACK 37 AUDIO
    TITLE "P1Q_t_0520-0528_37"
    INDEX 01 01:04:02
  TRACK 38 AUDIO
    TITLE "P1Q_t_0520-0528_38"
    INDEX 01 01:05:12
  TRACK 39 AUDIO
    TITLE "P1Q_t_0520-0528_39"
    INDEX 01 01:05:57
  TRACK 40 AUDIO
    TITLE "P1Q_t_0520-0528_40"
    INDEX 01 01:06:66
  TRACK 41 AUDIO
    TITLE "P1Q_t_0520-0528_41"
    INDEX 01 01:07:13
  TRACK 42 AUDIO
    TITLE "P1Q_t_0520-0528_42"
    INDEX 01 01:08:18
  TRACK 43 AUDIO
    TITLE "P1Q_t_0520-0528_43"
    INDEX 01 01:08:37
  TRACK 44 AUDIO
    TITLE "P1Q_t_0520-0528_44"
    INDEX 01 01:13:25
  TRACK 45 AUDIO
    TITLE "P1Q_t_0520-0528_45"
    INDEX 01 01:13:70
  TRACK 46 AUDIO
    TITLE "P1Q_t_0520-0528_46"
    INDEX 01 01:15:04
  TRACK 47 AUDIO
    TITLE "P1Q_t_0520-0528_47"
    INDEX 01 01:15:26
  TRACK 48 AUDIO
    TITLE "P1Q_t_0520-0528_48"
    INDEX 01 01:19:33
  TRACK 49 AUDIO
    TITLE "P1Q_t_0520-0528_49"
    INDEX 01 01:19:53
  TRACK 50 AUDIO
    TITLE "P1Q_t_0520-0528_50"
    INDEX 01 01:23:70
  TRACK 51 AUDIO
    TITLE "P1Q_t_0520-0528_51"
    INDEX 01 01:24:40
  TRACK 52 AUDIO
    TITLE "P1Q_t_0520-0528_52"
    INDEX 01 01:25:36
  TRACK 53 AUDIO
    TITLE "P1Q_t_0520-0528_53"
    INDEX 01 01:25:58
  TRACK 54 AUDIO
    TITLE "P1Q_t_0520-0528_54"
    INDEX 01 01:29:00
  TRACK 55 AUDIO
    TITLE "P1Q_t_0520-0528_55"
    INDEX 01 01:29:20
  TRACK 56 AUDIO
    TITLE "P1Q_t_0520-0528_56"
    INDEX 01 01:33:73
